<svg width="130" height="130" viewBox="0 0 130 130" fill="none" xmlns="http://www.w3.org/2000/svg">
<path d="M65 13.5417C51.3524 13.5417 38.2638 18.9631 28.6135 28.6135C18.9632 38.2638 13.5417 51.3524 13.5417 65C13.5417 78.6476 18.9632 91.7362 28.6135 101.387C36.5389 109.312 46.7833 114.385 57.7519 115.946C60.1391 116.285 62.5606 116.458 65 116.458C67.5041 116.458 69.9893 116.276 72.4379 115.918C83.3348 114.327 93.5069 109.266 101.387 101.387C111.037 91.7362 116.458 78.6476 116.458 65C116.458 51.3524 111.037 38.2638 101.387 28.6135C91.7362 18.9631 78.6476 13.5417 65 13.5417Z" fill="#2C65FA"/>
<path fill-rule="evenodd" clip-rule="evenodd" d="M85.7757 79.6208H72.4379V115.918C69.9893 116.276 67.5041 116.458 65 116.458C62.5606 116.458 60.1391 116.285 57.7519 115.946V79.6208H45V65.8924H57.7519V56.7594C57.7519 41.6375 65.0244 35 77.4291 35C83.2653 35 86.4022 35.4297 87.9202 35.6377L88 35.6486V47.6291H79.5395C74.2743 47.6291 72.4352 52.6862 72.4352 58.3892V65.8924H87.8698L85.7757 79.6208Z" fill="white"/>
</svg>
