<svg width="300" height="60" viewBox="0 0 300 60" fill="none" xmlns="http://www.w3.org/2000/svg">
<path d="M46.5821 12.6112C47.6554 13.8312 48.7454 15.2645 49.8521 16.9112C50.0854 17.2578 50.2454 17.6578 50.3321 18.1112C50.7121 20.2512 51.0821 20.5578 51.4421 19.0312L66.7921 43.6612C65.9121 43.6812 65.8954 44.5912 66.7421 46.3912C66.8754 46.6845 67.0787 46.9112 67.3521 47.0712C68.0121 47.4645 68.4787 48.0212 68.7521 48.7412C68.7721 48.7878 68.8021 48.8278 68.8421 48.8612L69.2121 49.1212C69.3921 49.2545 69.4821 49.4312 69.4821 49.6512C69.4887 50.0845 69.7254 50.2578 70.1921 50.1712C70.4454 50.1245 70.5187 50.2178 70.4121 50.4512C69.9521 51.4445 69.8254 52.5412 70.0321 53.7412C70.1054 54.1278 69.9921 54.4445 69.6921 54.6912C67.8787 56.2045 66.1621 56.1345 64.5421 54.4812C64.3621 54.2945 64.1454 54.2245 63.8921 54.2712C63.6187 54.3178 63.4687 54.1945 63.4421 53.9012C63.4358 53.7994 63.4042 53.7006 63.3502 53.6134C63.2961 53.5262 63.2212 53.4533 63.1321 53.4012C61.7921 52.6412 61.9821 51.2712 60.8921 50.4612C60.3921 50.0945 59.8554 50.0178 59.2821 50.2312L45.5121 28.1512L40.8521 21.1312C38.4587 17.6845 36.4687 15.2412 34.8821 13.8012C28.3821 7.88116 22.4054 8.34449 16.9521 15.1912C14.7054 18.0178 12.8887 21.8478 11.5021 26.6812C9.68206 28.6212 8.18206 29.2112 7.00206 28.4512C6.32206 28.0045 5.58206 27.7512 4.78206 27.6912C4.44873 27.6645 4.16206 27.5345 3.92206 27.3012L1.82206 25.2512C5.01206 11.9812 15.6121 -3.32884 31.1221 0.661157C37.5321 2.31116 42.6521 7.27116 46.5821 12.6112Z" fill="#787878"/>
<path d="M59.2821 50.2312C59.8554 50.0178 60.3921 50.0945 60.8921 50.4612C61.9821 51.2712 61.7921 52.6412 63.1321 53.4012C63.2212 53.4533 63.2961 53.5262 63.3502 53.6134C63.4042 53.7006 63.4358 53.7994 63.4421 53.9012C63.4687 54.1945 63.6187 54.3178 63.8921 54.2712C64.1454 54.2245 64.3621 54.2945 64.5421 54.4812C66.1621 56.1345 67.8787 56.2045 69.6921 54.6912C69.9921 54.4445 70.1054 54.1278 70.0321 53.7412C69.8254 52.5412 69.9521 51.4445 70.4121 50.4512C70.5187 50.2178 70.4454 50.1245 70.1921 50.1712C69.7254 50.2578 69.4887 50.0845 69.4821 49.6512C69.4821 49.4312 69.3921 49.2545 69.2121 49.1212L68.8421 48.8612C68.8021 48.8278 68.7721 48.7878 68.7521 48.7412C68.4787 48.0212 68.0121 47.4645 67.3521 47.0712C67.0787 46.9112 66.8754 46.6845 66.7421 46.3912C65.8954 44.5912 65.9121 43.6812 66.7921 43.6612C68.4821 45.7312 70.1721 48.3712 72.4721 49.4412C75.5521 50.8745 78.1121 50.3778 80.1521 47.9512C81.8921 45.8812 82.2521 42.4712 82.2721 39.7912C82.3387 32.4978 81.0354 25.7478 78.3621 19.5412C75.0221 11.7812 66.4721 2.78116 57.8021 10.5212C54.6554 13.3212 52.5354 16.1578 51.4421 19.0312C51.0821 20.5578 50.7121 20.2512 50.3321 18.1112C50.2454 17.6578 50.0854 17.2578 49.8521 16.9112C48.7454 15.2645 47.6554 13.8312 46.5821 12.6112C49.9421 8.09116 53.1287 4.84449 56.1421 2.87116C64.8321 -2.81884 74.4421 0.491158 80.7921 8.04116C89.0721 17.8712 92.1921 32.7112 90.4521 45.1012C89.4721 52.0612 85.4621 58.4512 78.1321 59.6212C69.5621 60.9812 63.8821 56.7712 59.2821 50.2312Z" fill="#787878"/>
<path d="M119.312 16.4612L119.342 58.5912C119.342 58.7512 119.262 58.8312 119.102 58.8312L110.342 58.8412C110.149 58.8412 110.052 58.7478 110.052 58.5612V2.35116C110.052 1.99116 110.232 1.81116 110.592 1.81116L120.742 1.82116C121.195 1.82116 121.532 2.02116 121.752 2.42116L140.332 35.8112C140.592 36.2778 140.852 36.2778 141.112 35.8112L159.762 2.30116C159.844 2.15274 159.963 2.02901 160.108 1.94284C160.252 1.85666 160.416 1.81119 160.582 1.81116L170.642 1.82116C170.995 1.82116 171.172 2.00116 171.172 2.36116V58.5612C171.172 58.7478 171.075 58.8412 170.882 58.8412L162.112 58.8312C161.945 58.8312 161.862 58.7478 161.862 58.5812L161.902 16.2712C161.902 15.5178 161.722 15.4678 161.362 16.1212L145.332 44.7512C145.217 44.9543 145.051 45.1229 144.85 45.239C144.65 45.3552 144.422 45.4146 144.192 45.4112L136.862 45.3912C136.429 45.3912 136.105 45.2012 135.892 44.8212L119.952 16.2912C119.519 15.5245 119.305 15.5812 119.312 16.4612Z" fill="#787878"/>
<path d="M231.352 15.5912L231.332 4.37116C231.332 4.04449 231.495 3.88116 231.822 3.88116H239.872C239.932 3.87982 239.992 3.89074 240.047 3.91326C240.103 3.93578 240.154 3.96945 240.197 4.0123C240.24 4.05515 240.274 4.10631 240.297 4.16278C240.32 4.21925 240.332 4.2799 240.332 4.34116L240.302 15.8012C240.302 16.1545 240.479 16.3312 240.832 16.3312H252.832C252.954 16.3312 253.071 16.3807 253.157 16.4688C253.244 16.557 253.292 16.6765 253.292 16.8012L253.252 23.5712C253.252 23.6693 253.212 23.7634 253.141 23.8328C253.069 23.9022 252.973 23.9412 252.872 23.9412H240.712C240.609 23.9412 240.509 23.9822 240.436 24.0554C240.363 24.1285 240.322 24.2277 240.322 24.3312C240.275 31.6912 240.299 38.6245 240.392 45.1312C240.502 52.7112 247.352 52.1912 252.602 51.4012C253.082 51.3278 253.322 51.5345 253.322 52.0212L253.302 58.1112C253.302 58.5512 253.089 58.8212 252.662 58.9212C242.132 61.4912 231.532 58.6212 231.392 45.7812C231.319 39.2078 231.312 32.1578 231.372 24.6312C231.372 24.4455 231.298 24.2675 231.167 24.1362C231.036 24.0049 230.858 23.9312 230.672 23.9312L223.082 23.9512C222.902 23.9512 222.812 23.8612 222.812 23.6812L222.752 16.6712C222.745 16.4445 222.855 16.3312 223.082 16.3312H230.602C231.102 16.3312 231.352 16.0845 231.352 15.5912Z" fill="#787878"/>
<path d="M188.672 41.4612C191.292 53.8812 205.912 55.1312 213.822 47.4512C213.865 47.4119 213.915 47.3817 213.97 47.3624C214.025 47.3431 214.083 47.335 214.141 47.3388C214.199 47.3425 214.255 47.3579 214.307 47.3841C214.359 47.4103 214.405 47.4467 214.442 47.4912L218.882 52.8712C218.955 52.9594 218.99 53.0724 218.98 53.1863C218.971 53.3001 218.918 53.4059 218.832 53.4812C213.645 57.9145 207.535 60.0212 200.502 59.8012C190.769 59.5012 184.192 54.9145 180.772 46.0412C178.082 39.0412 179.232 29.0912 184.082 23.0012C188.815 17.0612 195.295 14.5812 203.522 15.5612C215.782 17.0112 220.672 28.8712 220.052 40.3612C220.032 40.7545 219.822 40.9512 219.422 40.9512H189.082C188.742 40.9512 188.605 41.1212 188.672 41.4612ZM189.102 34.2412L211.022 34.0812C211.064 34.0812 211.105 34.0643 211.135 34.0343C211.165 34.0043 211.182 33.9636 211.182 33.9212V33.8012C211.172 32.388 210.876 30.9907 210.311 29.6891C209.746 28.3875 208.923 27.2071 207.89 26.2154C206.856 25.2236 205.632 24.4399 204.287 23.909C202.942 23.3781 201.503 23.1104 200.052 23.1212H199.912C196.982 23.1428 194.18 24.297 192.123 26.3298C190.065 28.3627 188.921 31.1077 188.942 33.9612V34.0812C188.942 34.1236 188.959 34.1643 188.989 34.1943C189.019 34.2243 189.06 34.2412 189.102 34.2412Z" fill="#787878"/>
<path d="M291.142 20.8712L291.092 17.0912C291.085 16.5845 291.339 16.3312 291.852 16.3312H298.862C299.529 16.3312 299.862 16.6645 299.862 17.3312V57.8312C299.862 58.5045 299.529 58.8412 298.862 58.8412H292.212C291.432 58.8412 291.055 58.4512 291.082 57.6712L291.192 53.7812C291.212 53.0878 291.012 53.0178 290.592 53.5712C288.132 56.8112 284.272 59.0612 280.312 59.5612C251.392 63.2612 249.582 16.4312 276.722 15.3412C282.672 15.1012 286.672 17.0912 290.552 21.1212C290.952 21.5345 291.149 21.4512 291.142 20.8712ZM267.782 31.2312C265.012 38.5212 267.032 49.7312 276.062 51.4512C281.909 52.5578 286.535 50.7278 289.942 45.9612C290.669 44.9412 291.012 43.7778 290.972 42.4712C290.859 39.1778 290.862 35.9778 290.982 32.8712C291.042 31.2312 290.502 29.8712 289.532 28.5912C283.592 20.7212 271.372 21.7912 267.782 31.2312Z" fill="#787878"/>
<path d="M40.8521 21.1312L45.5121 28.1512C40.9821 36.0412 36.8921 44.0212 31.3621 51.2712C26.4921 57.6512 21.1221 61.0912 12.8221 59.5012C-2.31794 56.5912 -1.11794 36.0012 1.82206 25.2512L3.92206 27.3012C4.16206 27.5345 4.44873 27.6645 4.78206 27.6912C5.58206 27.7512 6.32206 28.0045 7.00206 28.4512C8.18206 29.2112 9.68206 28.6212 11.5021 26.6812C10.0621 32.4312 8.94206 39.1112 10.5021 44.6612C11.8821 49.5545 14.9721 51.1845 19.7721 49.5512C21.5987 48.9312 23.7787 46.7545 26.3121 43.0212C31.1454 35.8945 35.9921 28.5978 40.8521 21.1312Z" fill="#787878"/>
</svg>
